<?xml version="1.0" encoding="UTF-8"?>
<svg version="1.1" xmlns="http://www.w3.org/2000/svg" width="768" height="252">
<path d="M0 0 C3.9004372 3.3668269 7.44164699 6.80706048 10.4609375 11.0078125 C10.98300781 10.43933594 11.50507812 9.87085937 12.04296875 9.28515625 C24.87475247 -4.17585679 40.22031511 -10.78744894 58.7734375 -11.3046875 C74.31967356 -10.99155241 87.9812611 -6.24210923 99.2734375 4.59765625 C107.47638279 13.63554418 112.58212901 26.48257783 112.58792114 38.74041748 C112.59074097 39.66298843 112.59356079 40.58555939 112.59646606 41.53608704 C112.59342972 43.03561165 112.59342972 43.03561165 112.59033203 44.56542969 C112.59296051 46.15882423 112.59296051 46.15882423 112.59564209 47.78440857 C112.60003922 51.29118488 112.59713095 54.79791068 112.59375 58.3046875 C112.59442345 60.73895274 112.59539382 63.17321791 112.59664917 65.60748291 C112.59812307 70.70496258 112.59598068 75.80242471 112.59130859 80.89990234 C112.58559938 87.44969445 112.58889979 93.99944568 112.59488106 100.5492363 C112.59848462 105.57275707 112.59734924 110.59626806 112.59475327 115.61978912 C112.59408406 118.03604385 112.59491221 120.45229946 112.59723282 122.86855316 C112.59975729 126.2349841 112.59592221 129.60134756 112.59033203 132.96777344 C112.59235626 133.97555344 112.59438049 134.98333344 112.59646606 136.02165222 C112.59364624 136.93294388 112.59082642 137.84423553 112.58792114 138.78314209 C112.5873556 139.97772348 112.5873556 139.97772348 112.58677864 141.19643784 C112.4609375 143.0078125 112.4609375 143.0078125 111.4609375 144.0078125 C108.73369471 144.10880738 106.03231227 144.14751779 103.3046875 144.140625 C102.07848694 144.14206009 102.07848694 144.14206009 100.82751465 144.14352417 C99.09578372 144.14420595 97.36405026 144.14235179 95.63232422 144.13818359 C92.97227268 144.13283529 90.31239 144.13812862 87.65234375 144.14453125 C85.97395796 144.14387047 84.29557227 144.1425893 82.6171875 144.140625 C81.81615601 144.14264923 81.01512451 144.14467346 80.18981934 144.14675903 C74.57588829 144.12276329 74.57588829 144.12276329 73.4609375 143.0078125 C73.34640194 140.3686292 73.29609337 137.75455145 73.28735352 135.11425781 C73.2806665 134.28643295 73.27397949 133.45860809 73.26708984 132.60569763 C73.25299892 130.79960883 73.24111789 128.99350178 73.23114204 127.18738556 C73.21474607 124.31884812 73.19150119 121.45044249 73.16624451 118.58197021 C73.09548393 110.42271518 73.03574899 102.26340183 72.98413086 94.10400391 C72.95209623 89.11661956 72.91074391 84.12937919 72.86393547 79.14211273 C72.84803977 77.24936301 72.83566175 75.35658004 72.82702827 73.46378326 C73.47986411 51.19464631 73.47986411 51.19464631 63.7109375 32.1953125 C56.60824108 27.41465145 50.02364143 25.93747451 41.4609375 27.0078125 C33.67526078 29.06482368 28.5278714 32.46742358 24.2734375 39.3828125 C20.61884068 45.69671169 20.16543772 52.10694075 20.17382812 59.21606445 C20.16699509 60.11120255 20.16016205 61.00634064 20.15312195 61.92860413 C20.13959196 63.86064988 20.13050157 65.79273085 20.12541199 67.72481728 C20.11709547 70.77990222 20.09656883 73.83469223 20.07287598 76.88969421 C20.01658432 84.46999888 19.98116969 92.05037468 19.94525146 99.63079834 C19.91406156 106.05058114 19.87493718 112.47021787 19.82499695 118.88988304 C19.8048811 121.90457958 19.79660232 124.91916443 19.78869629 127.93391418 C19.77573153 129.77145808 19.76221235 131.60899817 19.74804688 133.4465332 C19.74951973 134.70965332 19.74951973 134.70965332 19.75102234 135.99829102 C19.6886358 141.7801142 19.6886358 141.7801142 17.4609375 144.0078125 C14.67583526 144.19534561 11.99194104 144.26342482 9.20703125 144.23828125 C8.39097916 144.23782303 7.57492706 144.23736481 6.73414612 144.2368927 C5.00837755 144.23386994 3.28261172 144.22598292 1.55688477 144.21362305 C-1.09433583 144.19536228 -3.74520746 144.19311336 -6.39648438 144.19335938 C-8.07031554 144.18844444 -9.74414432 144.18261623 -11.41796875 144.17578125 C-12.21586319 144.17466843 -13.01375763 144.1735556 -13.83583069 144.17240906 C-19.42301349 144.12386151 -19.42301349 144.12386151 -20.5390625 143.0078125 C-20.64835064 140.24121328 -20.69329549 137.49866659 -20.69677734 134.73120117 C-20.70185806 133.86275574 -20.70693878 132.9943103 -20.71217346 132.09954834 C-20.72290581 130.20505482 -20.73151465 128.3105484 -20.73829269 126.41603661 C-20.75006511 123.40915165 -20.76951897 120.40241141 -20.79141235 117.39558411 C-20.85304639 108.84295547 -20.90687218 100.29033716 -20.94042969 91.73754883 C-20.96149353 86.5102191 -20.99690281 81.28314578 -21.04118729 76.05596352 C-21.05526969 74.07028559 -21.06405202 72.0845622 -21.06724167 70.0988369 C-20.60909964 50.88896674 -20.60909964 50.88896674 -28.5390625 34.0078125 C-33.82971759 28.86412005 -39.69561237 26.86562376 -46.9765625 26.5703125 C-55.17461374 26.82011462 -61.8573867 30.1940047 -67.5390625 36.0078125 C-72.41646571 43.6378096 -73.8357548 51.33807256 -73.84204102 60.23193359 C-73.85470001 61.57705017 -73.85470001 61.57705017 -73.86761475 62.94934082 C-73.89326615 65.8933163 -73.90549976 68.83719187 -73.91796875 71.78125 C-73.93415037 73.83152046 -73.95133106 75.88178325 -73.96946716 77.93203735 C-74.01504676 83.31394929 -74.04991689 88.69587147 -74.08166504 94.07788086 C-74.13365665 102.71359142 -74.1985142 111.34919023 -74.26988029 119.98476028 C-74.2927741 123.00556679 -74.30900029 126.02635882 -74.32460022 129.04721069 C-74.33799879 130.88482833 -74.35161288 132.72244442 -74.36547852 134.56005859 C-74.36939857 135.82857162 -74.36939857 135.82857162 -74.37339783 137.12271118 C-74.42541825 142.89416825 -74.42541825 142.89416825 -75.5390625 144.0078125 C-78.33899847 144.10884505 -81.11374894 144.14751338 -83.9140625 144.140625 C-84.75372559 144.14158173 -85.59338867 144.14253845 -86.45849609 144.14352417 C-88.23730545 144.14420598 -90.01611727 144.14235167 -91.79492188 144.13818359 C-94.52740026 144.13283533 -97.25971426 144.13812855 -99.9921875 144.14453125 C-101.7161462 144.14387047 -103.44010479 144.14258931 -105.1640625 144.140625 C-105.98696777 144.14264923 -106.80987305 144.14467346 -107.65771484 144.14675903 C-113.42411196 144.12276304 -113.42411196 144.12276304 -114.5390625 143.0078125 C-114.64004615 141.08881325 -114.66983497 139.16605223 -114.67277527 137.24440002 C-114.67704025 135.99220673 -114.68130524 134.74001343 -114.68569946 133.44987488 C-114.6853499 132.04934689 -114.68488834 130.64881893 -114.68432617 129.24829102 C-114.68731605 127.78342604 -114.69071818 126.31856186 -114.69450378 124.85369873 C-114.70336538 120.86407728 -114.7056828 116.87447726 -114.70631957 112.88484693 C-114.70726688 109.55961374 -114.71094311 106.2343856 -114.71449167 102.90915436 C-114.72264443 95.06695644 -114.72507515 87.22477002 -114.72436523 79.38256836 C-114.72376421 71.28064446 -114.73431898 63.17878709 -114.7501089 55.07688004 C-114.76316447 48.13165998 -114.76854997 41.18646172 -114.76790982 34.24122947 C-114.76765425 30.08842918 -114.77053789 25.93568798 -114.78108788 21.78289986 C-114.79073561 17.87841242 -114.79087106 13.97404097 -114.78357124 10.06954956 C-114.78252124 8.63359852 -114.78491275 7.19764039 -114.7909317 5.76170158 C-114.79859581 3.80721835 -114.79283292 1.85269597 -114.78630066 -0.10179138 C-114.78684543 -1.19742621 -114.78739019 -2.29306105 -114.78795147 -3.42189693 C-114.5390625 -5.9921875 -114.5390625 -5.9921875 -112.5390625 -7.9921875 C-109.83770927 -8.19192483 -107.24109039 -8.27200323 -104.5390625 -8.2578125 C-103.74757813 -8.25972595 -102.95609375 -8.2616394 -102.140625 -8.26361084 C-100.4661426 -8.26497268 -98.79164965 -8.26127632 -97.1171875 -8.25292969 C-94.54923869 -8.2422299 -91.98198947 -8.25282475 -89.4140625 -8.265625 C-87.78906095 -8.2643034 -86.16405984 -8.26174101 -84.5390625 -8.2578125 C-83.76820313 -8.26186096 -82.99734375 -8.26590942 -82.203125 -8.27008057 C-76.76898382 -8.22210882 -76.76898382 -8.22210882 -74.5390625 -5.9921875 C-74.125 -3.171875 -74.125 -3.171875 -73.9140625 0.1328125 C-73.83929687 1.22851562 -73.76453125 2.32421875 -73.6875 3.453125 C-73.63851562 4.29617187 -73.58953125 5.13921875 -73.5390625 6.0078125 C-73.02859375 5.49992187 -72.518125 4.99203125 -71.9921875 4.46875 C-52.38506744 -14.09543814 -21.65526854 -16.99105685 0 0 Z " fill="#53B947" transform="translate(655.5390625,11.9921875)"/>
<path d="M0 0 C17.15456566 13.19977058 27.07182623 31.16288516 30.5546875 52.37890625 C33.52220786 76.5095323 26.98758948 98.04808936 12.28515625 117.23828125 C-1.44252492 133.87300079 -21.74478784 142.99755268 -42.79296875 145.72265625 C-66.28426259 147.75418105 -89.12738831 142.37775669 -107.8125 127.625 C-123.73164349 113.92069387 -134.5399305 95.42169366 -136.22119141 74.20922852 C-137.18493666 50.07663737 -132.13254637 28.64783585 -116 10 C-85.4582371 -22.02576705 -35.67408812 -24.96203411 0 0 Z M-88.14453125 32.66015625 C-96.59667269 43.31875146 -99.79903739 56.75202833 -98.75390625 70.15625 C-96.67455179 84.43571074 -90.4462922 94.81781805 -79.5390625 104.20703125 C-68.80648188 111.78588433 -56.72855387 113.06945496 -44 112 C-36.01674047 110.4267225 -29.34115671 107.0410356 -23 102 C-22.38511719 101.52175781 -21.77023437 101.04351562 -21.13671875 100.55078125 C-12.60048536 93.03662459 -7.52799895 80.60988963 -6.75390625 69.453125 C-6.20220077 56.28779156 -8.70147588 44.5260227 -17 34 C-18.0828125 32.453125 -18.0828125 32.453125 -19.1875 30.875 C-26.72385104 22.26202738 -38.36189512 17.8315333 -49.48046875 16.62109375 C-64.90793551 16.09029301 -77.5361786 21.62831647 -88.14453125 32.66015625 Z " fill="#53B947" transform="translate(491,16)"/>
<path d="M0 0 C17.67874067 13.66804129 26.87894989 32.12489483 30.6875 53.9375 C32.79776536 75.84834038 27.91308774 97.29166262 13.90234375 114.58984375 C-3.16403731 134.12437868 -23.83801203 144.50225213 -49.69921875 146.25 C-72.96416634 146.66684117 -94.5025456 139.47732201 -112 124 C-112.61230469 123.48179687 -113.22460938 122.96359375 -113.85546875 122.4296875 C-126.58840246 110.83310257 -134.96648012 92.01632304 -136.21948242 75.0234375 C-137.109257 51.14688689 -133.54061211 29.92534794 -117.3359375 11.453125 C-86.26820042 -21.17319421 -36.88370728 -25.80843429 0 0 Z M-87 32 C-96.89447594 43.75940335 -100.00907155 56.41516428 -98.79296875 71.58203125 C-97.35592088 82.36778611 -91.89623696 94.01373346 -83.51953125 101.09765625 C-70.61420495 110.4647257 -59.84447981 113.24393065 -44 112 C-31.5858368 109.70005459 -21.28232549 102.18552429 -14 92 C-6.88583588 79.47327844 -5.02581162 65.93306245 -8.125 51.8125 C-11.88449283 38.48500883 -19.4335441 29.31318244 -31 22 C-50.02824052 12.59338393 -72.72915463 15.80066201 -87 32 Z " fill="#53B947" transform="translate(312,16)"/>
<path d="M0 0 C6.34841742 -0.30653964 12.69490518 -0.51530089 19.04907227 -0.65917969 C21.2057218 -0.71919866 23.36188971 -0.80085043 25.5168457 -0.90527344 C44.3926714 -1.79642559 44.3926714 -1.79642559 49.77685547 2.53125 C52.64257146 5.38281451 54.81791441 8.60076322 57 12 C58.480967 13.84874224 59.9782026 15.68471937 61.5 17.5 C62.221875 18.3971875 62.94375 19.294375 63.6875 20.21875 C66.64176364 23.77185086 69.76913424 27.1402368 72.91625977 30.52172852 C75.88715628 33.7329905 78.69961077 37.02627815 81.4375 40.4375 C84.82152067 44.64629991 88.37464066 48.62322185 92.0625 52.5625 C95.7102793 56.48655601 99.34210999 60.41683133 102.8125 64.5 C103.45832031 65.2528125 104.10414062 66.005625 104.76953125 66.78125 C106 69 106 69 105.98046875 71.4609375 C104.71588725 74.73575016 102.93908944 76.60310197 100.5 79.125 C99.5783644 80.09672091 98.6591449 81.07073831 97.7421875 82.046875 C97.2790918 82.53865234 96.81599609 83.03042969 96.33886719 83.53710938 C94.32896281 85.73319745 92.48173467 88.04898074 90.625 90.375 C86.75845816 95.1706049 82.65148017 99.66878667 78.4440918 104.16137695 C74.52107276 108.37411123 70.88096281 112.76404453 67.27734375 117.25390625 C64.78173296 120.26319336 62.16229869 123.13933755 59.5 126 C55.25513638 130.56289711 51.24627924 135.2576812 47.36328125 140.13671875 C46.58339844 141.08160156 45.80351563 142.02648437 45 143 C44.4772197 143.73176453 43.95443939 144.46352905 43.41581726 145.21746826 C38.54692191 151.52234694 38.54692191 151.52234694 34.43086243 152.79328918 C31.48791124 153.03817389 28.66866091 153.01475896 25.71875 152.87890625 C24.13761414 152.85980446 24.13761414 152.85980446 22.52453613 152.84031677 C19.18061437 152.79021005 15.842261 152.67736012 12.5 152.5625 C10.22403711 152.51732401 7.94798854 152.47626491 5.671875 152.43945312 C0.11270578 152.34059577 -5.44324937 152.19029771 -11 152 C-10.53138664 148.09954299 -10.17725095 145.55785895 -7.375 142.73828125 C-6.83794434 142.18253418 -6.30088867 141.62678711 -5.74755859 141.05419922 C-4.88251709 140.19205811 -4.88251709 140.19205811 -4 139.3125 C-2.80210969 138.0741029 -1.60681012 136.83319475 -0.4140625 135.58984375 C0.17213867 134.98124512 0.75833984 134.37264648 1.36230469 133.74560547 C3.57621082 131.3858218 5.60689044 128.90314089 7.625 126.375 C10.77441243 122.44111853 14.06784331 118.68735319 17.5 115 C20.97421336 111.26674967 24.30068926 107.4762862 27.5 103.5 C30.69933019 99.52368962 34.02597528 95.7334506 37.5 92 C42.58548844 86.53103608 47.341867 80.8388083 52 75 C52.74378906 74.07058594 53.48757812 73.14117187 54.25390625 72.18359375 C54.83011719 71.46300781 55.40632813 70.74242188 56 70 C55.07380859 69.00033203 55.07380859 69.00033203 54.12890625 67.98046875 C49.80243461 63.27205593 45.57315377 58.5467545 41.5625 53.5625 C37.90364231 49.0260327 34.05131037 44.741339 30.08398438 40.47851562 C27.1129881 37.26718772 24.30046168 33.97381211 21.5625 30.5625 C18.13257272 26.29976663 14.53744983 22.25263208 10.8125 18.25 C10.29993652 17.69642822 9.78737305 17.14285645 9.25927734 16.57250977 C7.14715526 14.29450883 5.02801526 12.02893884 2.8671875 9.796875 C1.1875 8 1.1875 8 -1 5 C-0.63671875 2.3125 -0.63671875 2.3125 0 0 Z " fill="#53B947" transform="translate(11,4)"/>
<path d="M0 0 C3.23777299 1.2068063 4.59240441 2.71103592 6.828125 5.3359375 C7.61058594 6.24472656 8.39304688 7.15351562 9.19921875 8.08984375 C12.20500766 11.71752002 15.16767519 15.37889751 18.12890625 19.04296875 C21.33427136 22.86180086 24.72669502 26.48398685 28.13378906 30.12207031 C32.05691093 34.33486891 35.69708914 38.72489102 39.30078125 43.21484375 C41.7964333 46.22418062 44.4166322 49.09948799 47.078125 51.9609375 C50.72023427 55.89664146 54.29925449 59.86877012 57.765625 63.9609375 C58.50167969 64.8271875 59.23773438 65.6934375 59.99609375 66.5859375 C61.578125 68.9609375 61.578125 68.9609375 61.578125 72.9609375 C55.01319075 73.13894479 48.44888211 73.26122602 41.88208008 73.34545898 C39.65007268 73.38058449 37.41822547 73.42829707 35.18676758 73.48901367 C31.97176558 73.57427894 28.75889806 73.61370544 25.54296875 73.64453125 C24.55103012 73.68066025 23.55909149 73.71678925 22.53709412 73.75401306 C17.29014394 73.75696289 14.34683637 73.3519677 10.53222656 69.58276367 C9.51893586 68.39938253 8.5308239 67.1936231 7.578125 65.9609375 C6.84207031 65.09210938 6.10601562 64.22328125 5.34765625 63.328125 C4.70183594 62.50570312 4.05601562 61.68328125 3.390625 60.8359375 C-0.05948153 56.54534505 -3.65949743 52.47417987 -7.421875 48.4609375 C-12.06758008 43.50349963 -16.43558272 38.41448627 -20.6796875 33.10546875 C-22.39349012 30.92067747 -22.39349012 30.92067747 -24.421875 28.9609375 C-24.18551642 24.54398659 -22.42094908 22.44955955 -19.421875 19.3359375 C-15.18215804 14.8185394 -11.24504123 10.13853701 -7.3671875 5.30859375 C-6.40425781 4.14650391 -6.40425781 4.14650391 -5.421875 2.9609375 C-4.94492188 2.34089844 -4.46796875 1.72085938 -3.9765625 1.08203125 C-2.421875 -0.0390625 -2.421875 -0.0390625 0 0 Z " fill="#53B947" transform="translate(124.421875,83.0390625)"/>
<path d="M0 0 C2.21404771 0.06027265 4.42825338 0.11501152 6.64257812 0.1640625 C12.03603083 0.29550389 17.4235224 0.49556391 22.8125 0.75 C23.42333984 2.59936523 23.42333984 2.59936523 23.8125 4.75 C22.0390625 7.16015625 22.0390625 7.16015625 19.4375 9.8125 C18.49889211 10.79196707 17.5627464 11.77379874 16.62890625 12.7578125 C16.15340332 13.25571289 15.67790039 13.75361328 15.18798828 14.26660156 C13.13397004 16.48176216 11.25947098 18.82763617 9.375 21.1875 C5.71484709 25.72557318 1.86128862 30.01195791 -2.10791016 34.27587891 C-5.03885327 37.44333639 -7.8077042 40.69088652 -10.5 44.0625 C-16.33000153 51.31808585 -22.78571471 58.00217226 -29.1875 64.75 C-37.95425689 60.68617692 -44.39258363 50.41081555 -50.375 42.96484375 C-52.14876357 40.72246433 -52.14876357 40.72246433 -54.1875 38.75 C-53.95114142 34.33304909 -52.18657408 32.23862205 -49.1875 29.125 C-45.91596211 25.63673562 -42.80152181 22.10857958 -39.8125 18.375 C-39.09296143 17.52115723 -38.37342285 16.66731445 -37.63208008 15.78759766 C-35.1467859 12.81313164 -35.1467859 12.81313164 -33.17993164 9.60205078 C-24.56579404 -2.37824385 -13.66354295 -0.64739725 0 0 Z " fill="#53B847" transform="translate(154.1875,3.25)"/>
<path d="M0 0 C1.08539063 -0.00257813 2.17078125 -0.00515625 3.2890625 -0.0078125 C4.42859375 -0.00007812 5.568125 0.00765625 6.7421875 0.015625 C8.41667969 0.00402344 8.41667969 0.00402344 10.125 -0.0078125 C26.3820922 0.0305297 26.3820922 0.0305297 32.6171875 6.265625 C35.91916585 11.66040652 35.39324011 18.01735688 33.96484375 23.99609375 C31.86673027 29.94825258 29.04449186 33.9675829 23.6171875 37.265625 C17.31925442 39.91075689 10.36848807 39.8798364 3.6171875 40.265625 C2.11106712 45.21430625 1.01220011 50.13753945 0.08203125 55.2265625 C-0.3828125 57.265625 -0.3828125 57.265625 -1.3828125 58.265625 C-3.54762047 58.3645544 -5.71575035 58.395336 -7.8828125 58.390625 C-9.06875 58.39320313 -10.2546875 58.39578125 -11.4765625 58.3984375 C-14.3828125 58.265625 -14.3828125 58.265625 -15.3828125 57.265625 C-15.38150735 46.86878421 -13.09653041 36.32183186 -11.42651367 26.09863281 C-10.94099012 23.11405476 -10.4692593 20.12749197 -9.99804688 17.140625 C-9.69093521 15.24205289 -9.38302217 13.34361018 -9.07421875 11.4453125 C-8.93456192 10.55270721 -8.79490509 9.66010193 -8.65101624 8.740448 C-8.51424973 7.91843903 -8.37748322 7.09643005 -8.23657227 6.24951172 C-8.06122704 5.16462967 -8.06122704 5.16462967 -7.88233948 4.05783081 C-6.66839922 -0.29755113 -3.92426006 0.00897853 0 0 Z M6.6171875 13.265625 C5.28134851 18.10804133 4.36390631 22.20000117 4.6171875 27.265625 C9.59052358 27.55817418 12.6608846 27.43066732 16.6171875 24.265625 C18.43114594 21.79204531 18.65952883 20.710209 18.3671875 17.640625 C17.7687537 15.10962271 17.7687537 15.10962271 15.6171875 13.265625 C13.40645773 13.02308687 13.40645773 13.02308687 10.9921875 13.140625 C9.76628906 13.16769531 9.76628906 13.16769531 8.515625 13.1953125 C7.57589844 13.23011719 7.57589844 13.23011719 6.6171875 13.265625 Z " fill="#002F87" transform="translate(343.3828125,180.734375)"/>
<path d="M0 0 C1.07765625 -0.00386719 2.1553125 -0.00773438 3.265625 -0.01171875 C4.39226562 -0.00011719 5.51890625 0.01148438 6.6796875 0.0234375 C7.783125 0.01183594 8.8865625 0.00023437 10.0234375 -0.01171875 C18.12944176 0.0171625 25.08024088 0.70396869 31.6171875 5.7734375 C35.07262676 10.5560524 34.15457543 16.8358403 33.5546875 22.3984375 C32.49674444 28.58333539 29.47210547 31.93039413 24.78515625 35.953125 C19.86495425 39.14134696 14.94043409 39.6973575 9.1796875 40.0234375 C7.93445313 40.09820312 6.68921875 40.17296875 5.40625 40.25 C4.46523438 40.29898438 3.52421875 40.34796875 2.5546875 40.3984375 C2.43351562 40.9553125 2.31234375 41.5121875 2.1875 42.0859375 C-1.09899215 57.05211715 -1.09899215 57.05211715 -2.4453125 58.3984375 C-4.63170703 58.47102696 -6.82031639 58.48217533 -9.0078125 58.4609375 C-10.80412109 58.44740234 -10.80412109 58.44740234 -12.63671875 58.43359375 C-13.56355469 58.42199219 -14.49039062 58.41039062 -15.4453125 58.3984375 C-16.33549078 54.77571915 -16.4453441 51.96697436 -15.87207031 48.28857422 C-15.72151184 47.29759735 -15.57095337 46.30662048 -15.41583252 45.28561401 C-15.24509216 44.22714264 -15.07435181 43.16867126 -14.8984375 42.078125 C-14.72656921 40.98251251 -14.55470093 39.88690002 -14.37762451 38.75808716 C-14.01205352 36.44592784 -13.64192991 34.13448437 -13.26757812 31.82373047 C-12.69667512 28.28189111 -12.14833084 24.73704158 -11.6015625 21.19140625 C-11.24355092 18.94509478 -10.88422067 16.69899299 -10.5234375 14.453125 C-10.36079407 13.39060516 -10.19815063 12.32808533 -10.03057861 11.23336792 C-9.8674115 10.24869537 -9.70424438 9.26402283 -9.53613281 8.24951172 C-9.3976593 7.38300995 -9.25918579 6.51650818 -9.11651611 5.62374878 C-7.60972359 0.6281225 -4.88265841 0.01695648 0 0 Z M5.5546875 13.3984375 C5.21648584 14.9807381 4.88432811 16.56433125 4.5546875 18.1484375 C4.3690625 19.03015625 4.1834375 19.911875 3.9921875 20.8203125 C3.44315075 23.61987715 3.44315075 23.61987715 3.5546875 27.3984375 C8.70353511 27.70736836 12.40809162 27.65647712 16.5546875 24.3984375 C17.36365767 21.3967324 17.54168829 18.49874887 17.5546875 15.3984375 C14.35088733 13.26257072 13.53528783 13.16711575 9.8671875 13.2734375 C8.65482422 13.30050781 8.65482422 13.30050781 7.41796875 13.328125 C6.80308594 13.35132813 6.18820312 13.37453125 5.5546875 13.3984375 Z " fill="#009CDE" transform="translate(489.4453125,180.6015625)"/>
<path d="M0 0 C0.66 -0.66 1.32 -1.32 2 -2 C4.8203125 -2.1953125 4.8203125 -2.1953125 8.125 -2.125 C9.22070312 -2.10695312 10.31640625 -2.08890625 11.4453125 -2.0703125 C12.70988281 -2.03550781 12.70988281 -2.03550781 14 -2 C15.20365704 2.39374328 14.76860504 5.94281945 14.07421875 10.41796875 C13.96656693 11.1164241 13.8589151 11.81487946 13.7480011 12.53450012 C13.51928282 14.00340573 13.28622398 15.47164133 13.04907227 16.93920898 C12.68729141 19.18879706 12.34374739 21.44065789 12.00195312 23.69335938 C11.77712621 25.12256686 11.5512511 26.55160994 11.32421875 27.98046875 C11.11885498 29.27879639 10.91349121 30.57712402 10.7019043 31.91479492 C10 35 10 35 8 37 C5.25 37.265625 5.25 37.265625 2 37.25 C0.9275 37.25515625 -0.145 37.2603125 -1.25 37.265625 C-4 37 -4 37 -6 35 C-6.99 35.495 -7.98 35.99 -9 36.5 C-14.5269895 38.84005604 -18.9988871 38.61050902 -24.6875 36.875 C-28.84952179 34.51913861 -32.10413215 31.81884534 -33.61328125 27.0703125 C-35.27478705 18.17538244 -33.0066398 11.66547555 -28.1875 4.1875 C-20.0475658 -3.9524342 -10.02131172 -5.01065586 0 0 Z M-18 13 C-19.65291451 16.3680093 -19.65291451 16.3680093 -20 20 C-18.88493049 22.44253321 -17.88643445 24.11356555 -16 26 C-11.46902014 26.46077761 -8.31232607 26.71346347 -4.5625 23.9375 C-1.49999479 20.42682329 -0.83426796 18.64049699 -1 14 C-2.25387006 10.91182268 -2.25387006 10.91182268 -5 9 C-10.7143679 8.18366173 -14.03027738 8.44649465 -18 13 Z " fill="#002F87" transform="translate(408,202)"/>
<path d="M0 0 C0.66 -0.66 1.32 -1.32 2 -2 C4.78515625 -2.23046875 4.78515625 -2.23046875 8.0625 -2.1875 C9.68865234 -2.17783203 9.68865234 -2.17783203 11.34765625 -2.16796875 C14 -2 14 -2 15 -1 C15.08021727 7.61533435 13.42753138 16.27477762 12.0625 24.75 C11.89274658 25.83418213 11.72299316 26.91836426 11.5480957 28.03540039 C11.37882568 29.04981201 11.20955566 30.06422363 11.03515625 31.109375 C10.8844165 32.02686523 10.73367676 32.94435547 10.57836914 33.88964844 C10.38750732 34.58606445 10.19664551 35.28248047 10 36 C7.23547967 37.38226016 4.9538637 37.09525387 1.875 37.0625 C0.77929688 37.05347656 -0.31640625 37.04445312 -1.4453125 37.03515625 C-2.28835938 37.02355469 -3.13140625 37.01195312 -4 37 C-4 36.01 -4 35.02 -4 34 C-4.556875 34.28875 -5.11375 34.5775 -5.6875 34.875 C-12.58660478 38.23132124 -17.22973603 39.19391692 -24.75 36.8125 C-29.43351363 34.20054047 -31.31826961 31.68809431 -33.3125 26.75 C-34.55421637 19.97700161 -33.70337922 13.97985366 -30.359375 7.921875 C-26.95902356 3.11448158 -22.88366711 -0.2399238 -17.4375 -2.4375 C-10.53350185 -3.56724515 -6.18164018 -3.02774213 0 0 Z M-18 14 C-19.52491998 17.04983996 -19.23562548 19.6423369 -19 23 C-17.43761073 25.12740425 -16.50280938 25.88700913 -13.9140625 26.46875 C-9.4670107 26.5294606 -7.61013062 26.48302008 -4 23.625 C-1.11303607 19.83585984 -0.52145975 17.78540254 -1 13 C-2.37283423 10.45997987 -2.37283423 10.45997987 -5 9 C-11.37858655 8.08877335 -13.86723866 8.74012193 -18 14 Z " fill="#009CDE" transform="translate(553,202)"/>
<path d="M0 0 C1.93559313 -0.13504138 3.873872 -0.23201129 5.8125 -0.3125 C6.89144531 -0.37050781 7.97039062 -0.42851562 9.08203125 -0.48828125 C12 0 12 0 13.75 2.09375 C15.12647956 5.29406498 16.20805229 8.46886816 17.1875 11.8125 C17.53167969 12.97394531 17.87585938 14.13539063 18.23046875 15.33203125 C18.61138672 16.65267578 18.61138672 16.65267578 19 18 C22.68804431 14.51827985 25.48188585 11.03952041 28.25 6.75 C31.94444444 1.05555556 31.94444444 1.05555556 33 0 C35.18639453 -0.07258946 37.37500389 -0.08373783 39.5625 -0.0625 C41.35880859 -0.04896484 41.35880859 -0.04896484 43.19140625 -0.03515625 C44.11824219 -0.02355469 45.04507813 -0.01195312 46 0 C46.66113281 1.73730469 46.66113281 1.73730469 47 4 C46.00292969 6.03613281 46.00292969 6.03613281 44.421875 8.203125 C43.84324707 9.01080322 43.26461914 9.81848145 42.66845703 10.65063477 C42.03536621 11.50842529 41.40227539 12.36621582 40.75 13.25 C39.44981662 15.05548267 38.15034608 16.86147887 36.8515625 18.66796875 C36.19961914 19.56692871 35.54767578 20.46588867 34.87597656 21.39208984 C32.22841192 25.07263194 29.67394008 28.81333085 27.125 32.5625 C15.61843145 49.38156855 15.61843145 49.38156855 13 52 C10.81360547 52.07258946 8.62499611 52.08373783 6.4375 52.0625 C4.64119141 52.04896484 4.64119141 52.04896484 2.80859375 52.03515625 C1.88175781 52.02355469 0.95492188 52.01195312 0 52 C-0.78125 50.36328125 -0.78125 50.36328125 -1 48 C1.16285193 44.85765979 3.60907424 42.0605205 6.09375 39.16796875 C8.00788382 35.986898 8.44761114 34.68284214 7.63964844 31.09985352 C5.84598338 25.21156606 3.79061884 19.41974667 1.70703125 13.62890625 C1.34738281 12.59378906 0.98773438 11.55867187 0.6171875 10.4921875 C0.11614502 9.09009033 0.11614502 9.09009033 -0.39501953 7.65966797 C-1.06144588 4.72986627 -0.79965901 2.86928827 0 0 Z " fill="#002F87" transform="translate(428,200)"/>
<path d="M0 0 C3.96 0 7.92 0 12 0 C12.85009052 4.25045262 13.04157096 6.16425844 12.41088867 10.2175293 C12.18020943 11.73886726 12.18020943 11.73886726 11.94487 13.29093933 C11.77099258 14.37442154 11.59711517 15.45790375 11.41796875 16.57421875 C11.24372879 17.69439896 11.06948883 18.81457916 10.88996887 19.96870422 C10.52002332 22.33210279 10.14570802 24.69482092 9.76733398 27.05688477 C9.18829301 30.68253461 8.62740823 34.31067312 8.06835938 37.93945312 C7.70681384 40.23454613 7.34421964 42.52947424 6.98046875 44.82421875 C6.72876167 46.4585511 6.72876167 46.4585511 6.4719696 48.12590027 C6.30872696 49.1306691 6.14548431 50.13543793 5.97729492 51.1706543 C5.8366008 52.05714157 5.69590668 52.94362885 5.5509491 53.85697937 C5 56 5 56 3 58 C0.1796875 58.1953125 0.1796875 58.1953125 -3.125 58.125 C-4.22070312 58.10695312 -5.31640625 58.08890625 -6.4453125 58.0703125 C-7.28835938 58.04710937 -8.13140625 58.02390625 -9 58 C-9.17211234 51.69120834 -8.52490457 45.77660957 -7.5390625 39.55078125 C-7.38843353 38.57513718 -7.23780457 37.5994931 -7.08261108 36.59428406 C-6.76443625 34.54408049 -6.44322887 32.49434548 -6.11914062 30.44506836 C-5.62508189 27.31301915 -5.14395204 24.17916974 -4.6640625 21.04492188 C-4.35233456 19.0467544 -4.03986022 17.0487032 -3.7265625 15.05078125 C-3.58376862 14.11736404 -3.44097473 13.18394684 -3.29385376 12.22224426 C-3.15385956 11.34750961 -3.01386536 10.47277496 -2.86962891 9.5715332 C-2.74971588 8.80734573 -2.62980286 8.04315826 -2.5062561 7.2558136 C-2 5 -2 5 0 0 Z " fill="#009CDE" transform="translate(578,181)"/>
<path d="M0 0 C2.31 0 4.62 0 7 0 C8.00506095 4.44563813 9.00168443 8.89305491 9.99072266 13.34228516 C10.3279583 14.85386392 10.66744622 16.36494211 11.00927734 17.87548828 C11.5017839 20.05371698 11.98601482 22.23365019 12.46875 24.4140625 C12.62186646 25.08305573 12.77498291 25.75204895 12.93273926 26.4413147 C13.79129845 30.36338041 14.15199289 33.98847333 14 38 C12.02 38 10.04 38 8 38 C7.67 35.03 7.34 32.06 7 29 C1.72 29 -3.56 29 -9 29 C-9.66 30.98 -10.32 32.96 -11 35 C-11.66 35.99 -12.32 36.98 -13 38 C-16.125 38.1875 -16.125 38.1875 -19 38 C-18.41117124 34.23568688 -17.33716826 31.40881003 -15.48828125 28.0859375 C-14.97716797 27.15910156 -14.46605469 26.23226562 -13.93945312 25.27734375 C-13.40255859 24.31957031 -12.86566406 23.36179688 -12.3125 22.375 C-11.79494141 21.44042969 -11.27738281 20.50585938 -10.74414062 19.54296875 C-9.69981703 17.65720385 -8.65310882 15.77275754 -7.60400391 13.88964844 C-5.04223192 9.27455967 -2.52080489 4.63755867 0 0 Z M1 10 C-1.31 14.62 -3.62 19.24 -6 24 C-2.37 24 1.26 24 5 24 C4.27671091 16.9575127 4.27671091 16.9575127 3 10 C2.34 10 1.68 10 1 10 Z " fill="#727272" transform="translate(290,201)"/>
<path d="M0 0 C6.93 0 13.86 0 21 0 C22.32 5.61 23.64 11.22 25 17 C27.97 11.39 30.94 5.78 34 0 C36.31 0 38.62 0 41 0 C36.50260575 9.09752086 31.95550263 18.14016196 27 27 C25.02 27 23.04 27 21 27 C18.76543688 19.37428218 16.61088355 11.78593716 15 4 C9.07202685 5.53271279 9.07202685 5.53271279 5.125 9.875 C3.28720699 15.36466558 2.73107754 21.28039338 2 27 C0.02 27 -1.96 27 -4 27 C-2.49269311 4.98538622 -2.49269311 4.98538622 0 0 Z " fill="#727272" transform="translate(669,212)"/>
<path d="M0 0 C0.804375 0.495 1.60875 0.99 2.4375 1.5 C2.4375 3.48 2.4375 5.46 2.4375 7.5 C0.26875748 6.99396008 -1.56217627 6.50016187 -3.5625 5.5 C-5.10273996 5.43049459 -6.64584988 5.41547643 -8.1875 5.4375 C-9.00476563 5.44652344 -9.82203125 5.45554688 -10.6640625 5.46484375 C-11.29054688 5.47644531 -11.91703125 5.48804688 -12.5625 5.5 C-13.2225 7.15 -13.8825 8.8 -14.5625 10.5 C-11.44079897 13.10141752 -8.12838307 14.74988112 -4.46484375 16.4375 C-2.36100283 17.61254051 -1.02488873 18.57698118 0.4375 20.5 C1.2091849 24.96366758 0.92917594 29.21617949 -0.6875 33.4375 C-3.78512339 36.84488573 -6.57274326 38.28385083 -11.1875 38.78515625 C-16.74454864 38.95881402 -20.76706113 38.61055494 -25.5625 35.5 C-25.2325 33.19 -24.9025 30.88 -24.5625 28.5 C-23.758125 28.995 -22.95375 29.49 -22.125 30 C-17.90581678 31.7764982 -14.09357322 32.3803228 -9.5625 31.5 C-7.74542969 30.2612622 -7.74542969 30.2612622 -6.5625 28.5 C-6.31201364 25.37450983 -6.31201364 25.37450983 -6.5625 22.5 C-7.3875 22.273125 -8.2125 22.04625 -9.0625 21.8125 C-13.48089496 20.15560189 -19.35628887 17.91242225 -21.5625 13.5 C-21.9369411 8.53865547 -21.80148133 5.38677759 -18.5625 1.5 C-12.65722084 -2.57745466 -6.47424252 -2.72599685 0 0 Z " fill="#727272" transform="translate(634.5625,201.5)"/>
<path d="M0 0 C3.24312081 1.21777264 3.78313181 2.02472954 6 5 C6.49254005 8.81183172 6.27989019 12.12818567 6 16 C-0.6 16 -7.2 16 -14 16 C-12.52360997 21.06008639 -12.52360997 21.06008639 -9 23 C-4.88867059 22.67370401 -0.96621988 22.15681413 3 21 C2.67 22.98 2.34 24.96 2 27 C-2.70009132 28.88003653 -6.98660397 29.82890811 -12 29 C-15.75212276 26.98497111 -17.63644095 25.54533858 -20 22 C-20.69858371 16.89871429 -20.79417194 11.70932611 -18.375 7.0625 C-13.2664218 0.47512285 -8.13209388 -1.44746008 0 0 Z M-13 9 C-13 9.99 -13 10.98 -13 12 C-8.38 12 -3.76 12 1 12 C0.50847518 7.13867505 0.50847518 7.13867505 -2 5 C-7.04234317 4.32768758 -9.47003766 5.36621524 -13 9 Z " fill="#717171" transform="translate(762,211)"/>
<path d="M0 0 C2.93423195 1.79646854 4.47205355 2.9441071 6 6 C6 9.3 6 12.6 6 16 C-0.93 16 -7.86 16 -15 16 C-14.34 17.98 -13.68 19.96 -13 22 C-7.03654233 23.0006709 -2.71271093 23.0662997 3 21 C2.875 23.3125 2.875 23.3125 2 26 C-1.86501634 28.73379204 -5.40129734 29.55675213 -10.04296875 29.34375 C-13.49175683 28.73797485 -15.43516568 27.32624508 -18 25 C-20.77369723 20.66609808 -21.29405673 18.01488196 -20.5 12.9375 C-19.17911965 7.58059637 -16.97997974 3.81935605 -12.14453125 0.8671875 C-8.20734663 -0.72489808 -4.16377001 -0.56594932 0 0 Z M-13 9 C-13.33 9.99 -13.66 10.98 -14 12 C-9.05 12 -4.1 12 1 12 C0.50847518 7.13867505 0.50847518 7.13867505 -2 5 C-7.07378538 4.32349528 -9.41143723 5.41143723 -13 9 Z " fill="#727272" transform="translate(658,211)"/>
<path d="M0 0 C0.96808594 -0.01417969 1.93617188 -0.02835938 2.93359375 -0.04296875 C5.5625 0.1875 5.5625 0.1875 8.5625 2.1875 C8.2325 4.1675 7.9025 6.1475 7.5625 8.1875 C6.5415625 7.6615625 6.5415625 7.6615625 5.5 7.125 C1.73328919 5.92285825 -0.62103141 6.21603527 -4.4375 7.1875 C-7.7165969 9.43109261 -8.34048603 10.82531452 -9.375 14.6875 C-9.7063177 18.1081522 -9.7063177 18.1081522 -8.25 20.5625 C-6.19385751 22.40593809 -5.14435442 22.79940291 -2.4375 23.1875 C-0.26871096 22.67455618 -0.26871096 22.67455618 1.8125 21.75 C2.51890625 21.46253906 3.2253125 21.17507812 3.953125 20.87890625 C4.74976563 20.53666016 4.74976563 20.53666016 5.5625 20.1875 C5.5625 22.1675 5.5625 24.1475 5.5625 26.1875 C1.02190437 28.84540964 -2.17822406 29.76123919 -7.4375 29.1875 C-11.0872635 27.52851659 -13.56162664 25.75165939 -15.4375 22.1875 C-16.7584804 17.3787512 -16.92596833 13.45275529 -14.8125 8.875 C-11.28064489 2.71878033 -6.96166406 0.04622619 0 0 Z " fill="#717171" transform="translate(733.4375,210.8125)"/>
<path d="M0 0 C1.98 0 3.96 0 6 0 C5.52342873 3.5628522 5.04328558 7.12521425 4.5625 10.6875 C4.42779297 11.69490234 4.29308594 12.70230469 4.15429688 13.74023438 C4.02216797 14.71669922 3.89003906 15.69316406 3.75390625 16.69921875 C3.63345947 17.59471436 3.5130127 18.49020996 3.38891602 19.4128418 C3.00562829 21.96255933 2.5269857 24.47643451 2 27 C0.02 27 -1.96 27 -4 27 C-2 8.65957447 -2 8.65957447 0 0 Z " fill="#737373" transform="translate(711,212)"/>
<path d="M0 0 C2.125 0.375 2.125 0.375 4 1 C4.625 2.875 4.625 2.875 5 5 C3 7 3 7 0.375 7.125 C-0.40875 7.08375 -1.1925 7.0425 -2 7 C-2.125 4.625 -2.125 4.625 -2 2 C-1.34 1.34 -0.68 0.68 0 0 Z " fill="#737373" transform="translate(714,201)"/>
</svg>
